 <svg version="1.0" xmlns="http://www.w3.org/2000/svg" width="700.000000pt" height="702.000000pt" viewBox="0 0 700.000000 702.000000" preserveAspectRatio="xMidYMid meet">
<metadata>
Created by potrace 1.12, written by Peter Selinger 2001-2015
</metadata>
<g transform="translate(0.000000,702.000000) scale(0.100000,-0.100000)" fill="#000000" stroke="none">
<path d="M3525 5370 c-108 -17 -133 -23 -220 -52 -161 -53 -238 -91 -348 -174
-196 -147 -348 -329 -451 -539 -110 -223 -147 -406 -177 -860 -6 -93 -15 -190
-21 -215 -43 -197 -78 -311 -119 -392 -5 -10 -9 -23 -9 -29 0 -21 -98 -216
-160 -319 -35 -58 -102 -157 -149 -220 -96 -129 -343 -382 -463 -475 -43 -33
-78 -65 -78 -71 0 -14 160 -193 251 -279 136 -129 244 -214 404 -317 162 -105
304 -180 453 -239 12 -5 32 -13 45 -18 12 -5 38 -14 57 -21 19 -7 44 -15 55
-20 71 -27 226 -68 370 -98 120 -25 381 -52 503 -52 127 0 428 31 537 55 111
24 173 39 225 55 14 4 45 13 70 20 25 7 54 16 65 20 11 5 70 27 130 51 423
164 825 460 1115 821 231 286 424 656 506 970 8 32 17 64 20 73 4 10 -3 18
-22 25 -71 27 -208 109 -259 157 -11 10 -46 40 -77 67 -53 44 -91 90 -265 321
-125 166 -155 210 -224 328 -39 67 -82 139 -95 159 -13 21 -24 40 -24 42 0 15
-222 383 -315 521 -185 276 -414 488 -651 602 -165 80 -266 103 -469 108 -88
2 -182 0 -210 -5z m-115 -565 c120 -30 179 -57 300 -138 186 -125 303 -284
400 -542 12 -33 26 -69 30 -80 4 -11 18 -47 31 -80 42 -110 128 -269 180 -335
29 -36 84 -92 122 -125 198 -170 253 -242 326 -428 49 -123 85 -189 149 -268
59 -75 97 -111 295 -279 116 -98 277 -287 277 -325 0 -21 -54 -95 -62 -85 -3
3 -26 33 -51 67 -52 68 -195 203 -327 309 -131 106 -243 217 -296 296 -42 63
-124 233 -124 257 0 21 -61 154 -95 207 -21 33 -102 122 -180 199 -190 188
-234 258 -315 505 -84 256 -176 450 -255 538 -119 131 -308 223 -459 222 l-71
-1 -41 -52 c-94 -117 -209 -387 -165 -387 4 0 47 -7 93 -15 153 -27 283 -94
381 -199 37 -40 54 -68 132 -211 73 -134 105 -171 238 -274 101 -79 153 -163
212 -344 14 -43 34 -123 44 -176 10 -54 25 -108 34 -121 15 -21 14 -26 -5 -64
-14 -28 -21 -61 -22 -106 -1 -79 24 -122 88 -151 41 -18 42 -19 54 -90 15 -89
61 -187 107 -231 19 -18 35 -39 35 -48 0 -32 -116 -224 -198 -327 -47 -60
-131 -153 -186 -208 -131 -131 -375 -334 -401 -335 -50 0 -234 205 -304 340
-48 92 -81 188 -81 234 0 27 5 36 23 41 90 28 417 262 417 300 0 3 -40 -22
-89 -55 -100 -68 -260 -147 -366 -180 -41 -13 -107 -24 -160 -27 -107 -5 -149
11 -176 67 -75 155 -105 210 -168 314 -84 139 -112 193 -136 261 -28 83 -45
212 -46 355 0 74 -4 157 -8 185 -12 71 -6 79 37 50 49 -33 107 -33 156 0 20
14 39 25 41 25 3 0 5 -31 5 -70 0 -84 -19 -160 -63 -254 -50 -104 -57 -124
-57 -156 0 -44 19 -77 54 -92 37 -15 127 -15 187 0 24 6 57 14 72 17 53 11 15
25 -69 25 -160 0 -199 44 -141 156 42 81 58 158 59 271 0 119 -7 151 -55 252
-48 102 -125 165 -217 180 -35 6 -35 7 -38 61 -6 96 40 306 88 401 59 115 152
180 287 201 l70 11 13 46 c20 70 83 201 134 278 25 39 46 73 46 77 0 13 -83 5
-158 -14 -209 -56 -382 -183 -470 -348 -79 -148 -85 -190 -87 -567 -2 -388
-18 -567 -71 -770 -42 -165 -71 -240 -164 -420 -86 -167 -93 -178 -228 -386
-62 -96 -140 -216 -172 -266 -33 -51 -65 -93 -72 -93 -7 0 -35 20 -62 43 l-49
44 54 64 c30 35 66 80 80 99 421 573 481 681 568 1028 40 154 58 342 71 722
13 389 28 489 96 607 106 186 294 319 522 368 78 18 284 18 352 0z m-694
-1310 c48 -28 89 -76 99 -116 13 -51 -65 -76 -138 -46 -79 34 -128 110 -112
175 6 23 9 24 57 19 27 -4 70 -18 94 -32z m1649 -461 c25 -25 16 -75 -17 -93
-54 -31 -109 31 -74 84 19 29 66 34 91 9z m67 -169 c4 -5 8 -40 8 -76 0 -56
-4 -70 -24 -92 -35 -37 -72 -44 -115 -21 -49 26 -63 57 -58 126 3 31 7 60 10
65 7 12 171 10 179 -2z m286 -480 c38 -19 90 -77 108 -121 28 -66 13 -177 -35
-272 -39 -77 -18 -62 45 33 45 66 84 146 84 170 0 22 27 30 53 17 12 -6 54
-21 92 -32 99 -30 160 -59 188 -89 27 -29 77 -106 77 -119 0 -24 -168 -177
-311 -284 -216 -160 -399 -262 -624 -347 -33 -13 -69 -26 -80 -31 -11 -4 -54
-18 -95 -30 -41 -12 -86 -26 -100 -30 -26 -8 -84 -20 -185 -40 -33 -7 -74 -10
-90 -8 -28 3 -26 6 64 82 79 68 152 144 271 282 106 122 261 358 345 525 51
101 115 256 115 279 0 34 28 39 78 15z m-1971 -47 c21 -23 42 -57 93 -154 70
-131 116 -186 175 -208 11 -5 56 -11 100 -15 l79 -6 12 -35 c6 -19 22 -66 34
-104 30 -96 75 -188 134 -276 55 -83 224 -258 299 -308 26 -18 47 -37 47 -42
0 -24 -429 -24 -575 1 -201 34 -364 71 -460 104 -104 36 -146 52 -152 58 -3 4
-12 7 -20 7 -19 0 -213 95 -323 158 -113 65 -237 151 -245 171 -3 7 28 64 69
125 180 269 403 464 611 534 54 18 100 14 122 -10z"></path>
<path d="M3146 3466 c-62 -12 -94 -40 -82 -72 5 -13 17 -15 74 -10 37 4 139 9
228 12 154 5 246 -4 319 -31 15 -6 13 -2 -7 13 -14 12 -29 22 -32 22 -4 0 -23
11 -44 24 -21 13 -69 30 -108 37 -92 17 -275 20 -348 5z"></path>
<path d="M3210 3228 c0 -7 9 -32 19 -55 38 -82 147 -117 259 -83 88 27 192 96
192 127 0 11 -3 13 -12 5 -7 -6 -42 -20 -77 -32 -123 -41 -303 -23 -352 36
-14 17 -29 18 -29 2z"></path>
<path d="M3020 2850 c-9 -6 -10 -10 -3 -10 6 0 15 5 18 10 8 12 4 12 -15 0z"></path>
<path d="M2858 2544 c-28 -15 -36 -38 -18 -49 6 -3 10 -16 10 -28 1 -60 55
-156 106 -186 47 -28 120 -28 179 0 25 12 45 22 45 23 0 0 -38 -1 -85 -3 -80
-3 -88 -1 -120 23 -32 25 -73 91 -63 102 3 2 34 -2 69 -11 35 -8 93 -15 129
-15 70 0 200 24 234 43 19 10 17 12 -24 18 -25 4 -86 23 -137 43 -92 36 -146
45 -158 26 -10 -15 -37 -12 -80 10 -46 24 -51 24 -87 4z"></path>
</g>
</svg>